<svg width="56" height="53" viewBox="0 0 56 53" fill="none" xmlns="http://www.w3.org/2000/svg">
<g filter="url(#filter0_d)">
<path fill-rule="evenodd" clip-rule="evenodd" d="M4 43.4998C4 43.1019 4.15804 42.7204 4.43934 42.4391C4.72064 42.1578 5.10218 41.9998 5.5 41.9998H50.5C50.8978 41.9998 51.2794 42.1578 51.5607 42.4391C51.842 42.7204 52 43.1019 52 43.4998C52 43.8976 51.842 44.2791 51.5607 44.5604C51.2794 44.8417 50.8978 44.9998 50.5 44.9998H5.5C5.10218 44.9998 4.72064 44.8417 4.43934 44.5604C4.15804 44.2791 4 43.8976 4 43.4998ZM13.36 0.524756C13.5008 0.360108 13.6757 0.227922 13.8725 0.137292C14.0692 0.046663 14.2833 -0.000258392 14.5 -0.000244137H41.5C41.7167 -0.000258392 41.9308 0.046663 42.1275 0.137292C42.3243 0.227922 42.4992 0.360108 42.64 0.524756L50.917 10.1818C51.6158 10.9973 52 12.0358 52 13.1098V13.4998H49V13.1098C49 12.7522 48.8724 12.4065 48.64 12.1348L40.81 2.99976H15.19L7.36 12.1348C7.12764 12.4065 6.99997 12.7522 7 13.1098V13.4998H4V13.1098C4.00004 12.0358 4.38417 10.9973 5.083 10.1818L13.363 0.521756L13.36 0.524756Z" fill="white"/>
</g>
<path d="M11.125 17.6248C13.405 17.6248 15.25 15.7768 15.25 13.4998H18.25C18.25 14.5938 18.6846 15.643 19.4582 16.4166C20.2318 17.1902 21.281 17.6248 22.375 17.6248C23.469 17.6248 24.5182 17.1902 25.2918 16.4166C26.0654 15.643 26.5 14.5938 26.5 13.4998H29.5C29.5 14.5938 29.9346 15.643 30.7082 16.4166C31.4818 17.1902 32.531 17.6248 33.625 17.6248C34.719 17.6248 35.7682 17.1902 36.5418 16.4166C37.3154 15.643 37.75 14.5938 37.75 13.4998H40.75C40.75 14.5938 41.1846 15.643 41.9582 16.4166C42.7318 17.1902 43.781 17.6248 44.875 17.6248C45.969 17.6248 47.0182 17.1902 47.7918 16.4166C48.5654 15.643 49 14.5938 49 13.4998H52C52.0002 14.9847 51.5364 16.4326 50.6735 17.641C49.8105 18.8495 48.5916 19.7581 47.187 20.24C45.7825 20.7218 44.2624 20.7528 42.8394 20.3286C41.4164 19.9043 40.1614 19.0461 39.25 17.8738C38.5844 18.7311 37.7315 19.4247 36.7565 19.9015C35.7815 20.3784 34.7103 20.6257 33.625 20.6248C32.5396 20.626 31.4684 20.3787 30.4934 19.9018C29.5183 19.425 28.6654 18.7312 28 17.8738C27.3346 18.7312 26.4817 19.425 25.5066 19.9018C24.5316 20.3787 23.4604 20.626 22.375 20.6248C21.2896 20.626 20.2184 20.3787 19.2434 19.9018C18.2683 19.425 17.4154 18.7312 16.75 17.8738C15.8386 19.0461 14.5836 19.9043 13.1606 20.3286C11.7376 20.7528 10.2175 20.7218 8.81297 20.24C7.4084 19.7581 6.18947 18.8495 5.32655 17.641C4.46363 16.4326 3.99984 14.9847 4 13.4998H7C7 15.7798 8.848 17.6248 11.125 17.6248Z" fill="white"/>
<path d="M18.25 13.4998C18.25 13.8976 18.092 14.2791 17.8107 14.5604C17.5294 14.8417 17.1478 14.9998 16.75 14.9998C16.3522 14.9998 15.9706 14.8417 15.6893 14.5604C15.408 14.2791 15.25 13.8976 15.25 13.4998C15.25 13.1019 15.408 12.7204 15.6893 12.4391C15.9706 12.1578 16.3522 11.9998 16.75 11.9998C17.1478 11.9998 17.5294 12.1578 17.8107 12.4391C18.092 12.7204 18.25 13.1019 18.25 13.4998ZM29.5 13.4998C29.5 13.8976 29.342 14.2791 29.0607 14.5604C28.7794 14.8417 28.3978 14.9998 28 14.9998C27.6022 14.9998 27.2206 14.8417 26.9393 14.5604C26.658 14.2791 26.5 13.8976 26.5 13.4998C26.5 13.1019 26.658 12.7204 26.9393 12.4391C27.2206 12.1578 27.6022 11.9998 28 11.9998C28.3978 11.9998 28.7794 12.1578 29.0607 12.4391C29.342 12.7204 29.5 13.1019 29.5 13.4998ZM40.75 13.4998C40.75 13.8976 40.592 14.2791 40.3107 14.5604C40.0294 14.8417 39.6478 14.9998 39.25 14.9998C38.8522 14.9998 38.4706 14.8417 38.1893 14.5604C37.908 14.2791 37.75 13.8976 37.75 13.4998C37.75 13.1019 37.908 12.7204 38.1893 12.4391C38.4706 12.1578 38.8522 11.9998 39.25 11.9998C39.6478 11.9998 40.0294 12.1578 40.3107 12.4391C40.592 12.7204 40.75 13.1019 40.75 13.4998Z" fill="white"/>
<path fill-rule="evenodd" clip-rule="evenodd" d="M10 20.5378V17.9998H7V19.3108C7.873 19.9318 8.896 20.3608 10 20.5378ZM7 22.7488C7.933 23.1688 8.941 23.4448 10 23.5618V41.9998H7V22.7488ZM46 23.5618C47.0359 23.4487 48.048 23.1755 49 22.7518V41.9998H46V23.5618ZM49 19.3108C48.127 19.9318 47.104 20.3608 46 20.5378V17.9998H49V19.3108ZM13 25.4998C13 25.1019 13.158 24.7204 13.4393 24.4391C13.7206 24.1578 14.1022 23.9998 14.5 23.9998H26.5C26.8978 23.9998 27.2794 24.1578 27.5607 24.4391C27.842 24.7204 28 25.1019 28 25.4998V41.9998H25V26.9998H16V41.9998H13V25.4998ZM31 25.4998C31 25.1019 31.158 24.7204 31.4393 24.4391C31.7206 24.1578 32.1022 23.9998 32.5 23.9998H41.5C41.8978 23.9998 42.2794 24.1578 42.5607 24.4391C42.842 24.7204 43 25.1019 43 25.4998V37.4998C43 37.8976 42.842 38.2791 42.5607 38.5604C42.2794 38.8417 41.8978 38.9998 41.5 38.9998H32.5C32.1022 38.9998 31.7206 38.8417 31.4393 38.5604C31.158 38.2791 31 37.8976 31 37.4998V25.4998ZM34 26.9998V35.9998H40V26.9998H34Z" fill="white"/>
<defs>
<filter id="filter0_d" x="0" y="-0.000244141" width="56" height="53" filterUnits="userSpaceOnUse" color-interpolation-filters="sRGB">
<feFlood flood-opacity="0" result="BackgroundImageFix"/>
<feColorMatrix in="SourceAlpha" type="matrix" values="0 0 0 0 0 0 0 0 0 0 0 0 0 0 0 0 0 0 127 0"/>
<feOffset dy="4"/>
<feGaussianBlur stdDeviation="2"/>
<feColorMatrix type="matrix" values="0 0 0 0 0 0 0 0 0 0 0 0 0 0 0 0 0 0 0.25 0"/>
<feBlend mode="normal" in2="BackgroundImageFix" result="effect1_dropShadow"/>
<feBlend mode="normal" in="SourceGraphic" in2="effect1_dropShadow" result="shape"/>
</filter>
</defs>
</svg>
